<?xml version='1.0' encoding='utf-8'?>
<svg xmlns="http://www.w3.org/2000/svg" width="24" height="24" viewBox="0 0 24 24" fill="none"><g transform="translate(-944 -240)"><path d="M955.875 255.7V255.81C955.875 256.09 955.655 256.31 955.375 256.31H946.375C946.095 256.31 945.875 256.09 945.875 255.81V255.7C945.875 253.94 946.315 253.5 948.095 253.5H953.655C955.435 253.5 955.875 253.94 955.875 255.7Z" fill="white" />
<path d="M946.375 257.31C946.095 257.31 945.875 257.53 945.875 257.81V259.8C945.875 261.56 946.315 262 948.095 262H953.655C955.435 262 955.875 261.56 955.875 259.8V257.81C955.875 257.53 955.655 257.31 955.375 257.31H946.375Z" fill="white" />
<path d="M965.125 255C965.125 254.586 965.461 254.25 965.875 254.25C966.289 254.25 966.625 254.586 966.625 255C966.625 259.284 963.159 262.75 958.875 262.75C958.605 262.75 958.356 262.604 958.223 262.369C958.09 262.134 958.093 261.846 958.231 261.614L959.282 259.864C959.495 259.509 959.955 259.394 960.311 259.606C960.666 259.82 960.781 260.281 960.568 260.636L960.298 261.085C963.066 260.442 965.125 257.966 965.125 255Z" fill="white" />
<path d="M945.125 249C945.125 244.716 948.591 241.25 952.875 241.25C953.145 241.25 953.394 241.396 953.527 241.631C953.66 241.866 953.657 242.154 953.519 242.386L952.468 244.136C952.255 244.491 951.795 244.606 951.439 244.394C951.084 244.18 950.969 243.719 951.182 243.364L951.451 242.914C948.683 243.557 946.625 246.034 946.625 249C946.625 249.414 946.289 249.75 945.875 249.75C945.461 249.75 945.125 249.414 945.125 249Z" fill="white" />
<path d="M962.375 251C964.86 251 966.875 248.985 966.875 246.5C966.875 244.015 964.86 242 962.375 242C959.89 242 957.875 244.015 957.875 246.5C957.875 248.985 959.89 251 962.375 251Z" fill="white" />
</g></svg>